<?xml version="1.0" encoding="UTF-8"?>
<!-- Created with Inkscape (http://www.inkscape.org/) -->
<svg width="64" height="64" enable-background="new" version="1.0" xmlns="http://www.w3.org/2000/svg" xmlns:cc="http://creativecommons.org/ns#" xmlns:dc="http://purl.org/dc/elements/1.1/" xmlns:rdf="http://www.w3.org/1999/02/22-rdf-syntax-ns#" xmlns:xlink="http://www.w3.org/1999/xlink">
 <title>Yaru Icon Theme Template</title>
 <defs>
  <clipPath>
   <path d="m115.03 44c-72.649 0-83.031 10.357-83.031 82.938v58.125c0 72.581 10.383 82.938 83.031 82.938h36.969v-224z" fill="#4d4d4d"/>
  </clipPath>
  <linearGradient id="linearGradient1074-7" x1="152" x2="137.5" y1="156" y2="156" gradientTransform="matrix(.21123 0 0 .26101 2.9548 226.98)" gradientUnits="userSpaceOnUse">
   <stop stop-opacity="0" offset="0"/>
   <stop stop-opacity=".15644" offset="1"/>
  </linearGradient>
  <linearGradient id="linearGradient943-0" x1="216" x2="216" y1="28" y2="284" gradientTransform="matrix(.30411 0 0 .33559 -14.226 215.35)" gradientUnits="userSpaceOnUse">
   <stop stop-color="#d4279f" offset="0"/>
   <stop stop-color="#fa3da3" offset="1"/>
  </linearGradient>
  <linearGradient id="linearGradient1694-7" x1="38.31" x2="264" y1="270.69" y2="268" gradientTransform="matrix(0 .26101 -.26066 0 72.661 228.03)" gradientUnits="userSpaceOnUse">
   <stop stop-color="#4d4d4d" offset="0"/>
   <stop stop-color="#4d4d4d" offset="1"/>
  </linearGradient>
  <filter id="filter58449-22" x="-.047999" y="-.048001" width="1.096" height="1.096" color-interpolation-filters="sRGB">
   <feGaussianBlur stdDeviation="4.4800539"/>
  </filter>
  <filter id="filter58492-9" x="-.012" y="-.012" width="1.024" height="1.024" color-interpolation-filters="sRGB">
   <feGaussianBlur stdDeviation="1.1200135"/>
  </filter>
 </defs>
 <metadata>
  <rdf:RDF>
   <cc:Work rdf:about="">
    <dc:format>image/svg+xml</dc:format>
    <dc:type rdf:resource="http://purl.org/dc/dcmitype/StillImage"/>
    <dc:creator>
     <cc:Agent>
      <dc:title>Yaru Team, based on the Suru template by Sam Hewitt and original Suru designs by Matthieu James</dc:title>
     </cc:Agent>
    </dc:creator>
    <dc:source/>
    <cc:license rdf:resource="http://creativecommons.org/licenses/by-sa/4.0/"/>
    <dc:title>Yaru Icon Theme Template</dc:title>
    <dc:subject>
     <rdf:Bag/>
    </dc:subject>
    <dc:date/>
    <dc:rights>
     <cc:Agent>
      <dc:title/>
     </cc:Agent>
    </dc:rights>
    <dc:publisher>
     <cc:Agent>
      <dc:title/>
     </cc:Agent>
    </dc:publisher>
    <dc:identifier/>
    <dc:relation/>
    <dc:language/>
    <dc:coverage/>
    <dc:description/>
    <dc:contributor>
     <cc:Agent>
      <dc:title/>
     </cc:Agent>
    </dc:contributor>
   </cc:Work>
   <cc:Work rdf:about="">
    <dc:format>image/svg+xml</dc:format>
    <dc:type rdf:resource="http://purl.org/dc/dcmitype/StillImage"/>
   </cc:Work>
   <cc:License rdf:about="http://creativecommons.org/licenses/by-sa/4.0/">
    <cc:permits rdf:resource="http://creativecommons.org/ns#Reproduction"/>
    <cc:permits rdf:resource="http://creativecommons.org/ns#Distribution"/>
    <cc:requires rdf:resource="http://creativecommons.org/ns#Notice"/>
    <cc:requires rdf:resource="http://creativecommons.org/ns#Attribution"/>
    <cc:permits rdf:resource="http://creativecommons.org/ns#DerivativeWorks"/>
    <cc:requires rdf:resource="http://creativecommons.org/ns#ShareAlike"/>
   </cc:License>
  </rdf:RDF>
 </metadata>
 <g transform="translate(0,-236)">
  <g display="none">
   <text id="context" x="19.006836" y="-8.2548828" display="inline" enable-background="new" fill="#000000" font-family="'DejaVu Sans'" style="line-height:0%" xml:space="preserve"><tspan x="19.006836" y="-8.2548828" font-family="'DejaVu Sans'" font-size="18px" style="line-height:1.25">apps</tspan></text>
   <text id="icon-name" x="146.48828" y="-8.2548828" display="inline" enable-background="new" fill="#000000" font-family="'DejaVu Sans'" font-weight="bold" style="line-height:0%" xml:space="preserve"><tspan x="146.48828" y="-8.2548828" font-family="'DejaVu Sans'" font-size="18px" font-weight="bold" style="line-height:1.25">calculator-app</tspan></text>
   <g fill="#cdcdcd">
    <rect x="320" y="236" width="16" height="16" display="inline" enable-background="accumulate"/>
    <rect x="320" y="188" width="24" height="24" display="inline" enable-background="accumulate"/>
    <rect x="320" y="132" width="32" height="32" display="inline" enable-background="accumulate"/>
    <rect x="320" y="60" width="48" height="48" display="inline" enable-background="accumulate"/>
    <rect x="24" y="28" width="256" height="256" display="inline" enable-background="accumulate"/>
   </g>
  </g>
  <g>
   <g>
    <path transform="matrix(.26066 0 0 .26101 -12.315 300.2)" d="m243.08-235.5c35.297 0 39.095 3.6254 38.922 38.994v73.006 73.006c0.17299 35.368-3.6249 38.994-38.922 38.994h-146.16c-35.297 0-38.922-3.625-38.922-38.994v-73.006-73.006c0-35.369 3.6249-38.994 38.922-38.994z" color="#000000" enable-background="accumulate" filter="url(#filter58492-9)" opacity=".1"/>
    <path transform="matrix(.26066 0 0 .26101 -12.315 300.2)" d="m243.08-235.5c35.297 0 39.095 3.6254 38.922 38.994v73.006 73.006c0.17299 35.368-3.6249 38.994-38.922 38.994h-146.16c-35.297 0-38.922-3.625-38.922-38.994v-73.006-73.006c0-35.369 3.6249-38.994 38.922-38.994z" color="#000000" enable-background="accumulate" filter="url(#filter58449-22)" opacity=".2"/>
    <path d="m12.948 238.47c-9.2006 0-10.146 0.94633-10.146 10.178v19.055 19.055c0 9.2316 0.94495 10.178 10.146 10.178h19.05v-58.467zm42.454 0.14835c5.0871 0.49074 5.7678 2.4833 5.7875 9.7028 0.0145-7.2207-0.68836-9.2125-5.7875-9.7028zm5.7875 48.467c-0.0198 7.2195-0.70045 9.2121-5.7875 9.7028 5.0992-0.4903 5.802-2.482 5.7875-9.7028z" color="#000000" enable-background="accumulate" fill="url(#linearGradient1694-7)"/>
   </g>
   <path d="m31.998 238.47v58.467h19.049c9.2006 0 10.145-0.94632 10.145-10.178v-38.111c0-9.2316-0.94494-10.178-10.145-10.178z" enable-background="new" fill="url(#linearGradient943-0)"/>
   <rect x="31.998" y="238.99" width="3.0628" height="57.945" enable-background="new" fill="url(#linearGradient1074-7)" fill-rule="evenodd"/>
   <path d="m2.8042 267.7v19.055c-0.0451 9.2315 0.94494 10.178 10.145 10.178h19.049v-29.233z" enable-background="new" fill="#fff" opacity=".1"/>
   <g transform="matrix(.99933 0 0 1.0007 -320 250)" enable-background="new" aria-label="x">
    <path d="m343.65 7.332c-0.25214 0.28366-0.40973 0.47277-0.69339 0.85098-0.72491 0.94553-1.1031 1.2607-1.4813 1.2607-0.44125 0-0.72491-0.40973-0.94553-1.2922-0.0946-0.3467-0.0946-0.40973-0.12607-0.50428-0.78795-3.2148-1.1346-4.6646-1.1346-5.1374 1.4183-2.4584 2.5214-3.8137 3.0887-3.8137 0.18911 0 0.47277 0.094553 0.75643 0.25214 0.37821 0.22062 0.59884 0.28366 0.8825 0.28366 0.63035 0 1.0716-0.47277 1.0716-1.1346 0-0.69339-0.5358-1.1662-1.2922-1.1662-1.3868 0-2.5529 1.1346-4.7592 4.507l-0.34669-1.7335c-0.44125-2.1432-0.78795-2.7736-1.6389-2.7736-0.72491 0-1.7335 0.25214-3.6876 0.91402-0.18911 0.063036-0.18911 0.063036-0.3467 0.12607l0.12607 0.47277c1.2292-0.31518 1.4498-0.3467 1.765-0.3467 0.78794 0 0.97705 0.28366 1.4183 2.1747l0.91402 3.8767-2.5845 3.6876c-0.66188 0.94553-1.2607 1.5129-1.6074 1.5129-0.18911 0-0.50429-0.094553-0.81946-0.28366-0.40974-0.22062-0.72491-0.31518-1.0086-0.31518-0.63036 0-1.0716 0.47277-1.0716 1.1031 0 0.81946 0.59884 1.3237 1.5759 1.3237s1.3553-0.28366 2.9312-2.1747c0.85098-1.0401 1.5444-1.9856 2.8366-3.7191l0.94553 3.7821c0.40974 1.6389 0.81947 2.1117 1.828 2.1117 1.1977 0 2.0171-0.75643 3.8452-3.593z" fill="#f2f2f2" stroke-width=".26084px" style="font-feature-settings:normal;font-variant-caps:normal;font-variant-ligatures:normal;font-variant-numeric:normal"/>
   </g>
   <g transform="matrix(.99933 0 0 1.0007 -320 250)" enable-background="new" aria-label="Ω">
    <path d="m330.32 35.758h0.41233q0.0446 0.79124 0.46806 1.1033 0.42348 0.31204 1.3484 0.31204h3.0424l-0.0223-0.74666q-1.7719-0.35661-3.2318-1.9725-1.4599-1.6159-1.4599-4.0788 0-2.7303 2.0282-4.6583 2.0394-1.9279 5.3158-1.9279 3.1761 0 5.1932 1.8276 2.0171 1.8165 2.0171 4.6583 0 2.3068-1.2593 3.9227-1.2481 1.6048-3.3878 2.2288l-0.11144 0.74666h3.0981q1.0587 0 1.393-0.40119 0.34547-0.40119 0.36776-1.0141h0.41233v3.4881h-6.2407l0.28975-3.3655q2.8752-0.90268 2.8752-5.3158 0-2.8863-1.4153-4.4242-1.4042-1.5379-3.2987-1.5379-2.0171 0-3.3432 1.6382-1.315 1.627-1.315 4.1679 0 1.8388 0.59064 3.3544 0.59064 1.5045 2.2623 2.1174l0.21174 3.3655h-6.2407z" fill="#f2f2f2" stroke-width=".26084px" style="font-feature-settings:normal;font-variant-caps:normal;font-variant-ligatures:normal;font-variant-numeric:normal"/>
   </g>
   <g>
    <path d="m12.95 238.47c-9.2006 0-10.191 0.94643-10.146 10.178v0.52203c-0.0451-9.2315 0.94495-10.178 10.146-10.178h38.098c9.2006 0 10.145 0.94632 10.145 10.178v-0.52203c0-9.2316-0.94492-10.178-10.145-10.178z" color="#000000" enable-background="accumulate" fill="#fff" opacity=".3"/>
    <path d="m12.951 296.93c-9.2005 0-10.191-0.94643-10.145-10.178v-0.52203c-0.0451 9.2315 0.94496 10.178 10.145 10.178h38.098c9.2006 0 10.145-0.94633 10.145-10.178v0.52203c0 9.2316-0.94494 10.178-10.145 10.178z" color="#000000" enable-background="accumulate" opacity=".2"/>
    <path d="m38.843 262.17v2.7667h14.462v-2.7667zm0 8.3002v2.7667h14.462v-2.7667z" color="#000000" enable-background="accumulate" fill="#fff"/>
   </g>
  </g>
 </g>
</svg>
