<?xml version="1.0" encoding="UTF-8"?>
<!-- Created with Inkscape (http://www.inkscape.org/) -->
<svg width="48" height="48" enable-background="new" version="1.0" xmlns="http://www.w3.org/2000/svg" xmlns:cc="http://creativecommons.org/ns#" xmlns:dc="http://purl.org/dc/elements/1.1/" xmlns:rdf="http://www.w3.org/1999/02/22-rdf-syntax-ns#" xmlns:xlink="http://www.w3.org/1999/xlink">
 <title>Yaru Icon Theme Template</title>
 <defs>
  <linearGradient id="linearGradient1686" x1="320" x2="368" y1="108" y2="108" gradientTransform="rotate(90 87.823 20.177)" gradientUnits="userSpaceOnUse">
   <stop stop-color="#4d4d4d" offset="0"/>
   <stop stop-color="#4d4d4d" offset="1"/>
  </linearGradient>
  <linearGradient id="linearGradient1686-0" x1="322" x2="366" y1="84" y2="84" gradientTransform="rotate(90 87.823 20.177)" gradientUnits="userSpaceOnUse">
   <stop stop-color="#fff" offset="0"/>
   <stop stop-color="#fff" stop-opacity=".098039" offset=".125"/>
   <stop stop-color="#fff" stop-opacity=".098039" offset=".925"/>
   <stop stop-color="#fff" stop-opacity=".49804" offset="1"/>
  </linearGradient>
  <clipPath>
   <path d="m115.03 44c-72.649 0-83.031 10.357-83.031 82.938v58.125c0 72.581 10.383 82.938 83.031 82.938h36.969v-224z" fill="#4d4d4d"/>
  </clipPath>
  <linearGradient id="linearGradient4602" x1="356" x2="356" y1="56" y2="112" gradientTransform="matrix(1 0 0 1.7442 -320 129.84)" gradientUnits="userSpaceOnUse">
   <stop stop-color="#cf27b3" offset="0"/>
   <stop stop-color="#f0389e" offset="1"/>
  </linearGradient>
  <linearGradient id="linearGradient1074-3" x1="115.77" x2="130.27" y1="158.74" y2="158.74" gradientTransform="matrix(.13793 0 0 .20045 -41.969 -308.07)" gradientUnits="userSpaceOnUse">
   <stop stop-opacity="0" offset="0"/>
   <stop stop-opacity=".15644" offset="1"/>
  </linearGradient>
 </defs>
 <metadata>
  <rdf:RDF>
   <cc:Work rdf:about="">
    <dc:format>image/svg+xml</dc:format>
    <dc:type rdf:resource="http://purl.org/dc/dcmitype/StillImage"/>
    <dc:creator>
     <cc:Agent>
      <dc:title>Yaru Team, based on the Suru template by Sam Hewitt and original Suru designs by Matthieu James</dc:title>
     </cc:Agent>
    </dc:creator>
    <dc:source/>
    <cc:license rdf:resource="http://creativecommons.org/licenses/by-sa/4.0/"/>
    <dc:title>Yaru Icon Theme Template</dc:title>
    <dc:subject>
     <rdf:Bag/>
    </dc:subject>
    <dc:date/>
    <dc:rights>
     <cc:Agent>
      <dc:title/>
     </cc:Agent>
    </dc:rights>
    <dc:publisher>
     <cc:Agent>
      <dc:title/>
     </cc:Agent>
    </dc:publisher>
    <dc:identifier/>
    <dc:relation/>
    <dc:language/>
    <dc:coverage/>
    <dc:description/>
    <dc:contributor>
     <cc:Agent>
      <dc:title/>
     </cc:Agent>
    </dc:contributor>
   </cc:Work>
   <cc:Work rdf:about="">
    <dc:format>image/svg+xml</dc:format>
    <dc:type rdf:resource="http://purl.org/dc/dcmitype/StillImage"/>
   </cc:Work>
   <cc:License rdf:about="http://creativecommons.org/licenses/by-sa/4.0/">
    <cc:permits rdf:resource="http://creativecommons.org/ns#Reproduction"/>
    <cc:permits rdf:resource="http://creativecommons.org/ns#Distribution"/>
    <cc:requires rdf:resource="http://creativecommons.org/ns#Notice"/>
    <cc:requires rdf:resource="http://creativecommons.org/ns#Attribution"/>
    <cc:permits rdf:resource="http://creativecommons.org/ns#DerivativeWorks"/>
    <cc:requires rdf:resource="http://creativecommons.org/ns#ShareAlike"/>
   </cc:License>
  </rdf:RDF>
 </metadata>
 <g transform="translate(0,-252)">
  <g display="none">
   <text id="context" x="19.006836" y="-8.2548828" display="inline" enable-background="new" fill="#000000" font-family="'DejaVu Sans'" style="line-height:0%" xml:space="preserve"><tspan x="19.006836" y="-8.2548828" font-family="'DejaVu Sans'" font-size="18px" style="line-height:1.25">apps</tspan></text>
   <text id="icon-name" x="146.48828" y="-8.2548828" display="inline" enable-background="new" fill="#000000" font-family="'DejaVu Sans'" font-weight="bold" style="line-height:0%" xml:space="preserve"><tspan x="146.48828" y="-8.2548828" font-family="'DejaVu Sans'" font-size="18px" font-weight="bold" style="line-height:1.25">qalculate</tspan></text>
   <g fill="#cdcdcd">
    <rect x="320" y="236" width="16" height="16" display="inline" enable-background="accumulate"/>
    <rect x="320" y="188" width="24" height="24" display="inline" enable-background="accumulate"/>
    <rect x="320" y="132" width="32" height="32" display="inline" enable-background="accumulate"/>
    <rect x="320" y="60" width="48" height="48" display="inline" enable-background="accumulate"/>
    <rect x="24" y="28" width="256" height="256" display="inline" enable-background="accumulate"/>
   </g>
  </g>
  <g>
   <path d="m13.658 254.35c-2.6221 0-4.6867 0.0501-6.3856 0.28673-1.6989 0.23664-3.089 0.68051-4.1074 1.5235-1.0183 0.84301-1.5558 1.9961-1.8383 3.4064-0.28252 1.4103-0.33767 3.1273-0.32482 5.3084v12.475 12.481c-0.0127 2.1777 0.0426 3.8938 0.32482 5.3027 0.28251 1.4103 0.81998 2.5634 1.8383 3.4064 1.0183 0.84301 2.4085 1.2869 4.1074 1.5235 1.6989 0.23665 3.7635 0.28674 6.3856 0.28674h20.686c2.6221 0 4.6857-0.05 6.381-0.28674 1.6953-0.23674 3.0813-0.6821 4.0958-1.5254 1.0146-0.84331 1.5488-1.9956 1.8337-3.4045 0.28483-1.4089 0.34554-3.1225 0.34554-5.3027v-12.481-12.481c0-2.1802-0.0608-3.8937-0.34554-5.3027-0.28482-1.409-0.81911-2.5612-1.8337-3.4045-1.0146-0.84332-2.4005-1.2887-4.0958-1.5254-1.6953-0.23674-3.7589-0.28673-6.381-0.28673z" color="#000000" color-rendering="auto" dominant-baseline="auto" enable-background="accumulate" image-rendering="auto" opacity=".1" shape-rendering="auto" solid-color="#000000" style="font-feature-settings:normal;font-variant-alternates:normal;font-variant-caps:normal;font-variant-ligatures:normal;font-variant-numeric:normal;font-variant-position:normal;isolation:auto;mix-blend-mode:normal;shape-padding:0;text-decoration-color:#000000;text-decoration-line:none;text-decoration-style:solid;text-indent:0;text-orientation:mixed;text-transform:none;white-space:normal"/>
   <path d="m13.336 253.85c-10.011 0-11.887 0.90602-11.834 9.748v12.752 12.752c-0.0527 8.842 1.8228 9.748 11.834 9.748h10.664v-45zm33.16 9.4356c-4e-5 0.10779 3e-3 0.20225 2e-3 0.3125v12.752 12.752c6.5e-4 0.11025-2e-3 0.20471-2e-3 0.3125 5.8e-4 -0.10779 4e-3 -0.20225 4e-3 -0.3125v-12.752-12.752c0-0.11025-3e-3 -0.20471-4e-3 -0.3125z" color="#000000" enable-background="accumulate" fill="url(#linearGradient1686)"/>
   <path d="m24 253.85v45h10.664c10.011 0 11.887-0.90602 11.834-9.748v-25.504c0.0527-8.842-1.8228-9.748-11.834-9.748z" enable-background="new" fill="url(#linearGradient4602)"/>
   <rect transform="scale(-1)" x="-26" y="-298.85" width="2" height="44.5" enable-background="new" fill="url(#linearGradient1074-3)" fill-rule="evenodd"/>
  </g>
  <g>
   <path d="m1.5004 276.35v12.752c0 8.8421 1.8253 9.748 11.834 9.748h10.666v-22.5z" enable-background="new" fill="#fff" opacity=".1"/>
   <g enable-background="new" aria-label="x">
    <path d="m16.987 268.64c-0.16 0.18-0.26 0.3-0.44 0.54-0.46 0.6-0.7 0.8-0.94 0.8-0.28 0-0.46-0.26-0.6-0.82-0.06-0.22-0.06-0.26-0.08-0.32-0.5-2.04-0.72-2.96-0.72-3.26 0.9-1.56 1.6-2.42 1.96-2.42 0.12 0 0.3 0.06 0.48 0.16 0.24 0.14 0.38 0.18 0.56 0.18 0.4 0 0.68-0.3 0.68-0.72 0-0.44-0.34-0.74-0.82-0.74-0.88 0-1.62 0.72-3.02 2.86l-0.22-1.1c-0.28-1.36-0.5-1.76-1.04-1.76-0.46 0-1.1 0.16-2.34 0.58-0.12 0.04-0.12 0.04-0.22 0.08l0.08 0.3c0.78-0.2 0.92-0.22 1.12-0.22 0.5 0 0.62 0.18 0.9 1.38l0.58 2.46-1.64 2.34c-0.42 0.6-0.8 0.96-1.02 0.96-0.12 0-0.32-0.06-0.52-0.18-0.26-0.14-0.46-0.2-0.64-0.2-0.4 0-0.68 0.3-0.68 0.7 0 0.52 0.38 0.84 1 0.84 0.62 0 0.86-0.18 1.86-1.38 0.54-0.66 0.98-1.26 1.8-2.36l0.6 2.4c0.26 1.04 0.52 1.34 1.16 1.34 0.76 0 1.28-0.48 2.44-2.28z" fill="#f2f2f2" stroke-width=".2027px" style="font-feature-settings:normal;font-variant-caps:normal;font-variant-ligatures:normal;font-variant-numeric:normal"/>
   </g>
   <g enable-background="new" aria-label="Ω">
    <path d="m8.4802 288.58h0.26497q0.028646 0.50846 0.30078 0.70899 0.27214 0.20052 0.86654 0.20052h1.9551l-0.01432-0.47982q-1.1387-0.22917-2.0768-1.2676-0.93815-1.0384-0.93815-2.6211 0-1.7546 1.3034-2.9935 1.3105-1.2389 3.416-1.2389 2.041 0 3.3372 1.1745 1.2962 1.1673 1.2962 2.9935 0 1.4824-0.80924 2.5208-0.80208 1.0312-2.1771 1.4323l-0.07161 0.47982h1.9909q0.68034 0 0.89518-0.25782 0.222-0.25781 0.23633-0.65169h0.26497v2.2415h-4.0104l0.1862-2.1628q1.8477-0.58008 1.8477-3.416 0-1.8548-0.90951-2.8431-0.90234-0.98828-2.1198-0.98828-1.2962 0-2.1484 1.0527-0.84505 1.0456-0.84505 2.6784 0 1.1816 0.37956 2.1556 0.37956 0.9668 1.4538 1.3607l0.13607 2.1628h-4.0104z" fill="#f2f2f2" stroke-width=".2027px" style="font-feature-settings:normal;font-variant-caps:normal;font-variant-ligatures:normal;font-variant-numeric:normal"/>
   </g>
   <path d="m29.798 272.19v2.083h10.903v-2.083zm0 6.2491v2.083h10.903v-2.083z" color="#000000" enable-background="accumulate" fill="#fff"/>
  </g>
  <g>
   <path d="m13.335 253.85c-10.011 0-11.887 0.90635-11.834 9.7484v12.752 12.752c-0.0527 8.842 1.8229 9.7484 11.834 9.7484h21.331c10.009 0 11.834-0.90625 11.834-9.7484v-12.752-12.752c0-8.8421-1.8254-9.7484-11.834-9.7484z" color="#000000" enable-background="accumulate" fill="none" opacity=".4" stroke="#000"/>
  </g>
  <g opacity=".5">
   <path d="m13.336 254.35c-4.9905 0-7.8705 0.27628-9.3848 1.4531-0.75713 0.58843-1.2376 1.4035-1.5449 2.6602-0.3073 1.2566-0.4173 2.94-0.4043 5.1328v12.754 12.754c-0.0131 2.1928 0.097 3.8762 0.4043 5.1328 0.30731 1.2566 0.78779 2.0717 1.5449 2.6602 1.5143 1.1768 4.3943 1.4531 9.3848 1.4531h21.33c4.9892 0 7.855-0.27668 9.3633-1.4531 0.75412-0.58824 1.2329-1.4046 1.543-2.6621 0.31003-1.2575 0.42773-2.9395 0.42773-5.1328v-12.752-12.752c0-2.1933-0.1177-3.8753-0.42773-5.1328-0.31004-1.2575-0.78884-2.0739-1.543-2.6621-1.5083-1.1765-4.374-1.4531-9.3633-1.4531zm2.4023 1.0977c6.9474 8.3e-4 13.911 3e-3 20.85 0.0547 2.143 0.0829 4.4643-0.14771 6.4238 0.93164 1.2961 0.69522 1.5486 2.2503 1.7695 3.5644 0.17551 2.2029 0.0915 4.4422 0.13867 6.6699 0.0227 8.4795 0.077 16.969-0.0801 25.447-0.16151 1.4832-0.38135 3.3058-1.7988 4.1426-1.6055 0.82871-3.4755 0.90643-5.248 0.95313-9.4997 0.0678-19.024 0.0843-28.523-0.0176-1.5782-0.11413-3.2705-0.24014-4.6328-1.1211-1.2295-0.99538-1.3608-2.7274-1.5039-4.1934-0.1272-8.9986-0.0836-18.004-0.0527-27.008 0.0997-2.3813-0.24538-4.9 0.70508-7.1602 0.67165-1.5097 2.4657-1.86 3.9394-2.0566 2.6617-0.31658 5.3418-0.14702 8.0137-0.20703z" color="#000000" enable-background="accumulate" fill="url(#linearGradient1686-0)" opacity="1"/>
  </g>
 </g>
</svg>
