<?xml version="1.0" encoding="UTF-8"?>
<!-- Created with Inkscape (http://www.inkscape.org/) -->
<svg width="256" height="256" version="1.1" viewBox="0 0 67.733 67.733" xmlns="http://www.w3.org/2000/svg" xmlns:cc="http://creativecommons.org/ns#" xmlns:dc="http://purl.org/dc/elements/1.1/" xmlns:osb="http://www.openswatchbook.org/uri/2009/osb" xmlns:rdf="http://www.w3.org/1999/02/22-rdf-syntax-ns#" xmlns:xlink="http://www.w3.org/1999/xlink">
 <defs>
  <linearGradient id="linearGradient4731">
   <stop stop-color="#c60091" offset="0"/>
   <stop stop-color="#fcffff" offset="1"/>
  </linearGradient>
  <radialGradient id="radialGradient4725" cx="26.511" cy="263.93" r="23.806" gradientTransform="matrix(4.405 2.145 -1.1176 2.2951 204.69 -398.68)" gradientUnits="userSpaceOnUse" xlink:href="#linearGradient4731"/>
  <linearGradient id="linearGradient2403" x1="59.05" x2="57.491" y1="277.68" y2="183.34" gradientTransform="matrix(.99621 0 0 .99621 4.0088 4.3093)" gradientUnits="userSpaceOnUse" xlink:href="#linearGradient4731"/>
  <linearGradient id="linearGradient4515-82" x1="36.041" x2="-6.4409" y1="256.63" y2="247.56" gradientTransform="matrix(1.1275 0 0 1.1275 -3.8676 -45.075)" gradientUnits="userSpaceOnUse">
   <stop offset="0"/>
   <stop stop-opacity="0" offset="1"/>
  </linearGradient>
 </defs>
 <metadata>
  <rdf:RDF>
   <cc:Work rdf:about="">
    <dc:format>image/svg+xml</dc:format>
    <dc:type rdf:resource="http://purl.org/dc/dcmitype/StillImage"/>
    <dc:title/>
    <cc:license rdf:resource="http://creativecommons.org/publicdomain/zero/1.0/"/>
   </cc:Work>
   <cc:License rdf:about="http://creativecommons.org/publicdomain/zero/1.0/">
    <cc:permits rdf:resource="http://creativecommons.org/ns#Reproduction"/>
    <cc:permits rdf:resource="http://creativecommons.org/ns#Distribution"/>
    <cc:permits rdf:resource="http://creativecommons.org/ns#DerivativeWorks"/>
   </cc:License>
  </rdf:RDF>
 </metadata>
 <g transform="translate(0 -229.27)">
  <path d="m43.567 260.15a17.217 22.122 0 0 1-16.738 22.114 17.217 22.122 0 0 1-17.669-20.884 17.217 22.122 0 0 1 15.756-23.274 17.217 22.122 0 0 1 18.545 19.591" fill="#bfd2f7" fill-opacity=".53307"/>
  <g>
   <g fill="url(#radialGradient4725)" style="font-feature-settings:normal;font-variant-caps:normal;font-variant-ligatures:normal;font-variant-numeric:normal" aria-label="Q">
    <path d="m26.545 238.85q-7.5792 0-12.058 5.65-4.4442 5.65-4.4442 15.4 0 9.7152 4.4442 15.365 4.4786 5.65 12.058 5.65 7.5792 0 11.989-5.65 4.4442-5.65 4.4442-15.365 0-9.7496-4.4442-15.4-4.4097-5.65-11.989-5.65zm9.7496 45.785 9.164 10.025h-8.406l-7.6137-8.2338q-1.1369 0.0689-1.757 0.10335-0.58567 0.0344-1.1369 0.0344-10.852 0-17.363-7.2347-6.4768-7.2692-6.4768-19.43 0-12.196 6.4768-19.43 6.5112-7.2692 17.363-7.2692 10.818 0 17.294 7.2692 6.4768 7.2347 6.4768 19.43 0 8.9572-3.6174 15.331-3.5829 6.3734-10.404 9.4051z" fill="url(#radialGradient4725)" stroke-width=".26458px" style="font-feature-settings:normal;font-variant-caps:normal;font-variant-ligatures:normal;font-variant-numeric:normal"/>
   </g>
   <g transform="scale(1.0131 .98708)" fill="url(#linearGradient2403)" style="font-feature-settings:normal;font-variant-caps:normal;font-variant-ligatures:normal;font-variant-numeric:normal" aria-label="!">
    <path d="m61.654 276.66 1.0508-40.254h-7.2748l1.0508 40.254zm0.88914 13.66v-7.194h-6.9515v7.194z" fill="url(#linearGradient2403)" stroke-width=".26358px" style="font-feature-settings:normal;font-variant-caps:normal;font-variant-ligatures:normal;font-variant-numeric:normal"/>
   </g>
   <g transform="scale(.92872 1.0768)" fill="url(#linearGradient4515-82)" stroke-width=".29833px" aria-label="f(x)">
    <path d="m28.539 233.18c0-0.6747-1.1541-1.0476-1.9531-1.0476-1.0831 0-2.0596 0.44389-2.9296 1.1008-1.4737 1.1896-2.0419 2.397-2.5212 4.279-0.03551 0.0533-0.07102 0.10653-0.10653 0.12429h-1.1896c-0.1598 0.0533-0.21306 0.47939-0.21306 0.69245 0 0.10654 0.01776 0.17756 0.08878 0.21307h1.0653c0.03551 0.0355 0.07102 0.071 0.08878 0.14204-0.39062 1.6335-0.97654 4.279-1.5447 6.6405-0.53266 2.1661-0.99429 4.0837-2.1129 4.0837-0.79899 0-1.1896-0.90551-1.74-0.90551-0.47939 0-0.88776 0.76347-0.88776 1.1718 0 0.60368 0.94103 0.85225 1.6157 0.85225 2.9119 0 4.3678-2.9474 5.2911-6.09 0.60368-2.0064 1.1363-4.2435 1.527-5.7705 0.05326-0.0533 0.08878-0.10653 0.10653-0.12428h1.9886c0.17755-0.0533 0.23082-0.47939 0.23082-0.71021 0-0.0888-0.03551-0.1598-0.08878-0.19531h-1.8643c-0.03551-0.0178-0.05327-0.071-0.07102-0.12429 0.1598-0.72796 0.37286-1.4559 0.60368-2.1661 0.31959-0.95878 0.71021-2.0241 1.6157-2.0241 0.8345 0 1.3316 1.0653 1.9176 1.0653 0.44388 0 1.0831-0.6747 1.0831-1.2074z" style="font-feature-settings:normal;font-variant-caps:normal;font-variant-ligatures:normal;font-variant-numeric:normal"/>
    <path d="m27.792 247.42c-0.79284-1.3801-1.0571-2.8484-1.0571-4.4781 0-2.7896 0.98371-5.3884 2.9511-7.4145l-0.19087-0.17619c-0.19087-0.19087-0.36706-0.2496-0.4992-0.11746-2.0261 2.0702-3.142 4.713-3.142 7.6348 0 1.615 0.42578 3.3329 1.2039 4.7864 0.07341 0.1615 0.2496 0.14682 0.4992-0.0587 0.10278-0.0734 0.19087-0.13214 0.23492-0.17618z" style="font-feature-settings:normal;font-variant-caps:normal;font-variant-ligatures:normal;font-variant-numeric:normal"/>
    <path d="m35.853 243.4c-0.30833 0.6607-0.58729 1.1599-0.89562 1.1599-0.29364 0-0.39642-0.30832-0.58729-1.0865l-0.36706-1.4535c0-0.044 0.01468-0.0881 0.02936-0.14682 0.63134-0.93967 1.2774-1.7472 1.8206-1.7472 0.22023 0 0.33769 0.14682 0.33769 0.42579 0 0.11745-0.01468 0.22023-0.02936 0.35237 0.04405 0.0294 0.11746 0.0587 0.20555 0.0587 0.20555 0.0294 0.23492-0.10278 0.30833-0.39642 0.08809-0.30833 0.1615-0.70475 0.1615-1.0278 0-0.44046-0.1615-0.79284-0.61665-0.79284-0.74879 0-1.4535 1.0571-2.3932 2.4813h-0.01468l-0.30833-1.2039c-0.17619-0.73411-0.51388-1.2774-1.1893-1.2774-0.93966 0-1.6444 0.92498-2.0408 1.894-0.13214 0.30833-0.11746 0.4111 0.04405 0.48451 0.08809 0.0294 0.14682 0.044 0.19087 0.0587 0.22023-0.54324 0.57261-1.1452 0.9103-1.1452 0.29364 0 0.4111 0.26428 0.63134 1.0718l0.33769 1.3654c0 0.0294-0.01468 0.10277-0.02936 0.14682-0.60197 0.92498-1.2774 1.8059-1.8646 1.8059-0.26428 0-0.38174-0.20555-0.38174-0.46983 0-0.10277 0.01468-0.23491 0.02936-0.35237-0.04405-0.0294-0.10278-0.0587-0.17619-0.0734-0.19087-0.0147-0.2496 0.10277-0.33769 0.4111-0.10278 0.35237-0.1615 0.76347-0.1615 1.0718 0 0.46983 0.14682 0.83689 0.63134 0.83689 0.73411 0 1.5123-1.1452 2.4666-2.5988h0.01468l0.32301 1.3067c0.1615 0.73411 0.46983 1.292 1.1599 1.292 0.93966 0 1.6297-0.92498 2.0261-1.894 0.10278-0.27896 0.14682-0.4111-0.04405-0.48451z" style="font-feature-settings:normal;font-variant-caps:normal;font-variant-ligatures:normal;font-variant-numeric:normal"/>
    <path d="m40.683 240.01c0-1.615-0.4111-3.3329-1.2039-4.7864-0.07341-0.1615-0.2496-0.14682-0.4992 0.0587-0.10278 0.0734-0.19087 0.14682-0.23492 0.19087 0.77816 1.3801 1.0571 2.8337 1.0571 4.4634 0 2.7896-0.98371 5.3884-2.9511 7.4145l0.19087 0.17619c0.19087 0.19087 0.36706 0.2496 0.4992 0.11746 2.0261-2.0702 3.142-4.713 3.142-7.6348z" style="font-feature-settings:normal;font-variant-caps:normal;font-variant-ligatures:normal;font-variant-numeric:normal"/>
   </g>
  </g>
 </g>
</svg>
