<?xml version="1.0" encoding="UTF-8"?>
<!-- Created with Inkscape (http://www.inkscape.org/) -->
<svg width="256" height="256" version="1.1" viewBox="0 0 67.733 67.733" xmlns="http://www.w3.org/2000/svg" xmlns:cc="http://creativecommons.org/ns#" xmlns:dc="http://purl.org/dc/elements/1.1/" xmlns:osb="http://www.openswatchbook.org/uri/2009/osb" xmlns:rdf="http://www.w3.org/1999/02/22-rdf-syntax-ns#" xmlns:xlink="http://www.w3.org/1999/xlink">
 <defs>
  <linearGradient id="linearGradient4731">
   <stop stop-color="#c60091" offset="0"/>
   <stop stop-color="#fcffff" offset="1"/>
  </linearGradient>
  <linearGradient id="linearGradient4513">
   <stop offset="0"/>
   <stop stop-opacity="0" offset="1"/>
  </linearGradient>
  <radialGradient id="radialGradient4725" cx="26.511" cy="263.93" r="23.806" gradientTransform="matrix(4.405 2.145 -1.1176 2.2951 204.69 -398.68)" gradientUnits="userSpaceOnUse" xlink:href="#linearGradient4731"/>
  <linearGradient id="linearGradient4515" x1="27.687" x2="13.037" y1="254.67" y2="247.25" gradientTransform="translate(6.7988 -5.2749)" gradientUnits="userSpaceOnUse" xlink:href="#linearGradient4513"/>
  <linearGradient id="linearGradient4515-3" x1="36.758" x2="2.7475" y1="257.7" y2="239.76" gradientTransform="translate(6.3876 6.0242)" gradientUnits="userSpaceOnUse">
   <stop offset="0"/>
   <stop stop-opacity=".0097276" offset="1"/>
  </linearGradient>
  <linearGradient id="linearGradient4515-82-7" x1="36.041" x2="-6.4409" y1="256.63" y2="247.56" gradientTransform="translate(-4.0762 11.677)" gradientUnits="userSpaceOnUse" xlink:href="#linearGradient4513"/>
  <linearGradient id="linearGradient4515-9" x1="27.687" x2="13.037" y1="254.67" y2="247.25" gradientTransform="translate(-1.6879 -.050938)" gradientUnits="userSpaceOnUse" xlink:href="#linearGradient4513"/>
  <linearGradient id="linearGradient2403" x1="59.05" x2="57.19" y1="277.68" y2="181.49" gradientTransform="matrix(.99621 0 0 .99621 4.0086 4.3096)" gradientUnits="userSpaceOnUse" xlink:href="#linearGradient4731"/>
 </defs>
 <metadata>
  <rdf:RDF>
   <cc:Work rdf:about="">
    <dc:format>image/svg+xml</dc:format>
    <dc:type rdf:resource="http://purl.org/dc/dcmitype/StillImage"/>
    <dc:title/>
    <cc:license rdf:resource="http://creativecommons.org/publicdomain/zero/1.0/"/>
   </cc:Work>
   <cc:License rdf:about="http://creativecommons.org/publicdomain/zero/1.0/">
    <cc:permits rdf:resource="http://creativecommons.org/ns#Reproduction"/>
    <cc:permits rdf:resource="http://creativecommons.org/ns#Distribution"/>
    <cc:permits rdf:resource="http://creativecommons.org/ns#DerivativeWorks"/>
   </cc:License>
  </rdf:RDF>
 </metadata>
 <g transform="translate(0 -229.27)">
  <path d="m43.567 260.15a17.217 22.122 0 0 1-16.738 22.114 17.217 22.122 0 0 1-17.669-20.884 17.217 22.122 0 0 1 15.756-23.274 17.217 22.122 0 0 1 18.545 19.591" fill="#bfd2f7" fill-opacity=".53307"/>
  <g>
   <g fill="url(#radialGradient4725)" style="font-feature-settings:normal;font-variant-caps:normal;font-variant-ligatures:normal;font-variant-numeric:normal" aria-label="Q">
    <path d="m26.545 238.85q-7.5792 0-12.058 5.65-4.4442 5.65-4.4442 15.4 0 9.7152 4.4442 15.365 4.4786 5.65 12.058 5.65 7.5792 0 11.989-5.65 4.4442-5.65 4.4442-15.365 0-9.7496-4.4442-15.4-4.4097-5.65-11.989-5.65zm9.7496 45.785 9.164 10.025h-8.406l-7.6137-8.2338q-1.1369 0.0689-1.757 0.10335-0.58567 0.0344-1.1369 0.0344-10.852 0-17.363-7.2347-6.4768-7.2692-6.4768-19.43 0-12.196 6.4768-19.43 6.5112-7.2692 17.363-7.2692 10.818 0 17.294 7.2692 6.4768 7.2347 6.4768 19.43 0 8.9572-3.6174 15.331-3.5829 6.3734-10.404 9.4051z" fill="url(#radialGradient4725)" stroke-width=".26458px" style="font-feature-settings:normal;font-variant-caps:normal;font-variant-ligatures:normal;font-variant-numeric:normal"/>
   </g>
   <g fill="url(#linearGradient4515)" aria-label="€">
    <path d="m30.686 251.86q0.51676 0 0.82682-0.25838 0.31006-0.25838 0.38241-0.72864l0.95601 0.0724q-0.15503 0.80098-0.72347 1.2351-0.56327 0.43408-1.4624 0.43408-1.1214 0-1.7777-0.67696-0.65112-0.67696-0.80615-2.0206h-0.88367l0.2067-0.66663h0.62012l-0.0155-0.40307 0.0155-0.44442h-0.82682l0.2067-0.65629h0.66663q0.16536-1.3281 0.80615-1.974 0.64079-0.65112 1.7725-0.65112 0.90434 0 1.4676 0.43925 0.56844 0.43408 0.7183 1.2299l-0.95601 0.0724q-0.07235-0.47025-0.38757-0.72864-0.31006-0.25838-0.85783-0.25838-0.7338 0-1.1265 0.44959-0.38757 0.44958-0.49609 1.4211h2.3048l-0.20671 0.65629h-2.1342q-0.0155 0.12402-0.0155 0.44442 0 0.2067 0.02067 0.40307h2.3358l-0.20671 0.66663h-2.0877q0.11369 1.0077 0.53227 1.4779 0.41858 0.46509 1.1317 0.46509z" fill="url(#linearGradient4515)" stroke-width=".26458px" style="font-feature-settings:normal;font-variant-caps:normal;font-variant-ligatures:normal;font-variant-numeric:normal"/>
   </g>
   <g fill="url(#linearGradient4515-3)" stroke-width=".26458px" aria-label="123">
    <path d="m27.388 263.81v-0.37394h0.57856q0.18344 0 0.26811-0.0988 0.08467-0.0988 0.08467-0.35983v-3.5348q-0.26811 0.32456-0.48683 0.52917-0.21167 0.20461-0.42333 0.20461-0.16933 0-0.28928-0.14111t-0.11994-0.381q0.21167-0.0564 0.47272-0.16933 0.26811-0.11289 0.61383-0.37395l0.49389-0.36689h0.79022v4.2333q0 0.21872 0.07056 0.33866 0.07055 0.11995 0.28928 0.11995h0.5715v0.37394z" style="font-feature-settings:normal;font-variant-caps:normal;font-variant-ligatures:normal;font-variant-numeric:normal"/>
    <path d="m30.895 263.81v-0.72672l1.0442-1.0654q0.43744-0.4445 0.67028-0.78317 0.23283-0.33866 0.32456-0.64911 0.09172-0.31044 0.09172-0.67733 0-0.40217-0.14817-0.58561-0.14817-0.1905-0.40217-0.1905-0.35983 0-0.508 0.31044-0.14111 0.30339-0.14111 0.91017-0.40217 0-0.65617-0.15522-0.24694-0.16228-0.24694-0.54328 0-0.254 0.16933-0.47272 0.17639-0.21872 0.52211-0.34572 0.34572-0.13406 0.86078-0.13406 0.79022 0 1.1994 0.3175 0.41628 0.31044 0.41628 0.85372 0 0.24695-0.09172 0.47978-0.08467 0.23283-0.28928 0.508-0.20461 0.27517-0.55739 0.64206-0.35278 0.35983-0.88194 0.86077l-0.70556 0.67028h1.6439q0.45156 0 0.58561-0.48683l0.05645-0.21872h0.41628l-0.03528 1.4817z" style="font-feature-settings:normal;font-variant-caps:normal;font-variant-ligatures:normal;font-variant-numeric:normal"/>
    <path d="m36.306 263.88q-0.52917 0-0.86783-0.11995-0.33161-0.11994-0.49389-0.31044-0.15522-0.19756-0.15522-0.41628 0-0.26811 0.17639-0.40922 0.18344-0.14111 0.42333-0.14111 0 0.45155 0.23989 0.67733t0.62794 0.22578q0.23283 0 0.43039-0.0917 0.19756-0.0917 0.3175-0.3175 0.11994-0.22578 0.11994-0.62795 0-0.40216-0.28222-0.66322t-0.81139-0.26106h-0.43744v-0.43744h0.46567q0.45861 0 0.67733-0.28222 0.21872-0.28928 0.21872-0.75495 0-0.381-0.14817-0.59972t-0.43744-0.21872q-0.254 0-0.38806 0.16228-0.127 0.15522-0.17639 0.40922-0.04233 0.24694-0.04233 0.52211-0.43744 0-0.67733-0.14817-0.23989-0.15522-0.23989-0.47977 0-0.37395 0.39511-0.635 0.39511-0.26106 1.1642-0.26106 0.75494 0 1.1924 0.30339 0.43744 0.29633 0.43744 0.84667 0 0.47272-0.31044 0.79727-0.31044 0.3175-0.76906 0.47273 0.28222 0.0494 0.5715 0.1905 0.28928 0.13405 0.48683 0.38805 0.19756 0.24695 0.19756 0.65617 0 0.43039-0.16228 0.72672-0.15522 0.28928-0.43039 0.46567-0.26811 0.17639-0.60678 0.254-0.33867 0.0776-0.70556 0.0776z" style="font-feature-settings:normal;font-variant-caps:normal;font-variant-ligatures:normal;font-variant-numeric:normal"/>
   </g>
   <g fill="url(#linearGradient4515-82-7)" stroke-width=".26458px" aria-label="∫x">
    <path d="m23.138 259.91c0-0.64664-0.79587-0.99483-1.3264-0.99483-2.5368 0-3.5482 2.4705-3.7306 4.4602-0.14922 1.5752-0.16581 3.1337-0.28187 4.7089-0.21555 3.0342-0.74612 4.0622-1.6746 4.0622-0.61348 0-0.87877-0.58032-1.343-0.58032-0.29845 0-0.44768 0.38135-0.44768 0.64664 0 0.49742 0.48084 0.69638 1.0612 0.69638 3.4488 0 3.8964-6.3504 4.0291-8.9369 0.06632-1.2933 0.11606-4.5099 1.741-4.5099 0.39793 0 0.58032 0.23213 0.72954 0.49742 0.18239 0.31503 0.26529 0.58032 0.58032 0.58032 0.31503 0 0.66322-0.29845 0.66322-0.63006z" style="font-feature-settings:normal;font-variant-caps:normal;font-variant-ligatures:normal;font-variant-numeric:normal"/>
    <path d="m25.043 268.04c-0.20002 0.42863-0.381 0.75248-0.58102 0.75248-0.1905 0-0.25718-0.20003-0.381-0.70485l-0.23812-0.94298c0-0.0286 0.0095-0.0572 0.01905-0.0953 0.40958-0.6096 0.82868-1.1335 1.1811-1.1335 0.14288 0 0.21908 0.0953 0.21908 0.27622 0 0.0762-0.0095 0.14288-0.01905 0.2286 0.02858 0.019 0.0762 0.0381 0.13335 0.0381 0.13335 0.019 0.1524-0.0667 0.20002-0.25717 0.05715-0.20003 0.10478-0.4572 0.10478-0.66675 0-0.28575-0.10478-0.51435-0.40005-0.51435-0.48578 0-0.94298 0.6858-1.5526 1.6097h-0.0095l-0.20002-0.78105c-0.1143-0.47625-0.33338-0.82867-0.77152-0.82867-0.6096 0-1.0668 0.60007-1.324 1.2287-0.08573 0.20003-0.0762 0.2667 0.02858 0.31433 0.05715 0.019 0.09525 0.0286 0.12382 0.0381 0.14288-0.35243 0.37148-0.74295 0.59055-0.74295 0.1905 0 0.2667 0.17145 0.40958 0.69532l0.21908 0.88583c0 0.019-0.0095 0.0667-0.01905 0.0953-0.39052 0.60007-0.82868 1.1716-1.2097 1.1716-0.17145 0-0.24765-0.13335-0.24765-0.3048 0-0.0667 0.0095-0.1524 0.01905-0.2286-0.02858-0.0191-0.06668-0.0381-0.1143-0.0476-0.12382-0.01-0.16192 0.0667-0.21908 0.2667-0.06668 0.2286-0.10478 0.4953-0.10478 0.69532 0 0.3048 0.09525 0.54293 0.40958 0.54293 0.47625 0 0.98108-0.74295 1.6002-1.6859h0.0095l0.20955 0.84773c0.10478 0.47625 0.3048 0.8382 0.75248 0.8382 0.6096 0 1.0573-0.60008 1.3144-1.2287 0.06668-0.18097 0.09525-0.2667-0.02858-0.31432z" stroke-width=".26458px" style="font-feature-settings:normal;font-variant-caps:normal;font-variant-ligatures:normal;font-variant-numeric:normal"/>
   </g>
   <g fill="url(#linearGradient4515-9)" aria-label="=">
    <path d="m19.406 252.56v-0.8643h5.3463v0.8643zm0 2.3954v-0.8643h5.3463v0.8643z" fill="url(#linearGradient4515-9)" stroke-width=".26458px" style="font-feature-settings:normal;font-variant-caps:normal;font-variant-ligatures:normal;font-variant-numeric:normal"/>
   </g>
   <g transform="scale(1.0131 .98708)" fill="url(#linearGradient2403)" style="font-feature-settings:normal;font-variant-caps:normal;font-variant-ligatures:normal;font-variant-numeric:normal" aria-label="!">
    <path d="m61.654 276.66 1.0508-40.254h-7.2748l1.0508 40.254zm0.88914 13.66v-7.194h-6.9515v7.194z" fill="url(#linearGradient2403)" stroke-width=".26358px" style="font-feature-settings:normal;font-variant-caps:normal;font-variant-ligatures:normal;font-variant-numeric:normal"/>
   </g>
  </g>
 </g>
</svg>
